<?xml version="1.0" ?><svg version="1.1" viewBox="0 0 152 152" xmlns="http://www.w3.org/2000/svg" xmlns:xlink="http://www.w3.org/1999/xlink"><defs><linearGradient id="def0" x1="0.500004" x2="0.500004" y1="1" y2="4.49589E-06"><stop offset="0" stop-color="#B8DAFF"/><stop offset="0.00561806" stop-color="#B8DAFF"/><stop offset="1" stop-color="#F6F9FF"/></linearGradient></defs><g><path d="M152,152L0,152 0,0 152,0 152,152z" fill="#77A1C9"/><path d="M1.33333,1.33333L150.667,1.33333 150.667,150.667 1.33333,150.667 1.33333,1.33333z" fill="url(#def0)"/><path d="M82.6667,18.6667L10.6667,18.6667 10.6667,16 82.6667,16 82.6667,18.6667z" fill="#009900"/><path d="M54.6667,30.6667L30.6667,30.6667 30.6667,28 54.6667,28 54.6667,30.6667z" fill="#009900"/><path d="M72,42.6667L53.3333,42.6667 53.3333,40 72,40 72,42.6667z" fill="#009900"/><path d="M118.667,54.6667L46.6667,54.6667 46.6667,52 118.667,52 118.667,54.6667z" fill="#009900"/><path d="M50.6667,66.6667L32,66.6667 32,64 50.6667,64 50.6667,66.6667z" fill="#009900"/><path d="M81.3333,78.6667L18.6667,78.6667 18.6667,76 81.3333,76 81.3333,78.6667z" fill="#009900"/><path d="M38.6667,90.6667L18.6667,90.6667 18.6667,88 38.6667,88 38.6667,90.6667z" fill="#009900"/><path d="M65.3333,102.667L29.3333,102.667 29.3333,100 65.3333,100 65.3333,102.667z" fill="#009900"/><path d="M117.333,114.667L76,114.667 76,112 117.333,112 117.333,114.667z" fill="#009900"/><path d="M128,126.667L76,126.667 76,124 128,124 128,126.667z" fill="#009900"/><path d="M144,138.667L82.6667,138.667 82.6667,136 144,136 144,138.667z" fill="#009900"/><path d="M23.5833,111.396C14.125,111.396 6.5,119.083 6.5,128.542 6.5,137.979 14.125,145.667 23.5833,145.667 28.5833,145.667 33.0833,143.5 36.25,140.104L30.9792,135.208C28.9583,137.021 26.4167,137.938 23.5833,137.938 18.5833,137.938 14.6458,134.292 14.6458,128.542 14.6458,122.771 18.5833,119.083 23.5833,119.083 26.4167,119.083 28.9583,120.042 30.9792,121.854L36.25,116.958C33.0833,113.563,28.5833,111.396,23.5833,111.396z" fill="#009900"/><path d="M61.5582,131.5L62.8082,125.604 68.1207,125.604 68.9957,121.479 63.6623,121.479 65.7665,111.729 61.1207,111.729 59.0582,121.479 54.0582,121.479 56.1207,111.729 51.5165,111.729 49.454,121.479 44.1832,121.479 43.2665,125.604 48.5998,125.604 47.2873,131.5 42.0165,131.5 41.1623,135.646 46.4332,135.646 44.3707,145.333 48.9748,145.333 51.0373,135.646 56.0373,135.646 53.9748,145.333 58.579,145.333 60.6415,135.646 65.9748,135.646 66.829,131.5 61.5582,131.5z M53.204,125.604L58.1832,125.604 56.954,131.5 51.954,131.5 53.204,125.604z" fill="#009900"/></g></svg>