<?xml version="1.0" ?><svg id="Layer_1" style="enable-background:new 0 0 512 512;" version="1.1" viewBox="0 0 512 512" xml:space="preserve" xmlns="http://www.w3.org/2000/svg" xmlns:xlink="http://www.w3.org/1999/xlink"><g><path d="M333.4,6.1h-105v20.7h96.2v104.4h104.7v251.3H82.7V268.5H62V506h388V121.9L333.4,6.1z M317.7,411.6h21.1   c6.1,0,10.8,1.6,14.3,4.7s5.2,7.3,5.2,12.4c0,5.2-1.7,9.3-5.2,12.4c-3.4,3.1-8.2,4.7-14.3,4.7h-11.9v20.9h-9.2V411.6z M260.9,411.6   h9.2v24.2h24.6v-24.2h9.2v55h-9.2v-23.5h-24.6v23.5h-9.2V411.6z M209.3,411.6h21.1c6.1,0,10.8,1.6,14.3,4.7s5.2,7.3,5.2,12.4   c0,5.2-1.7,9.3-5.2,12.4c-3.4,3.1-8.2,4.7-14.3,4.7h-11.9v20.9h-9.2V411.6z"/><polygon points="200.7,240.6 200.7,6 62.1,6 62.1,240.6 131.4,171  "/><path d="M346.5,435.7c1.7-1.8,2.6-4.1,2.6-6.9c0-2.8-0.9-5.1-2.6-7c-1.7-1.9-4.3-2.8-7.7-2.8h-11.9v19.4h11.9   C342.2,438.4,344.8,437.5,346.5,435.7z"/><path d="M238.1,435.7c1.7-1.8,2.6-4.1,2.6-6.9c0-2.8-0.9-5.1-2.6-7c-1.7-1.9-4.3-2.8-7.7-2.8h-11.9v19.4h11.9   C233.8,438.4,236.3,437.5,238.1,435.7z"/></g></svg>